<?xml version="1.0" encoding="UTF-8"?>
<svg width="24px" height="24px" viewBox="0 0 24 24" version="1.1" xmlns="http://www.w3.org/2000/svg" xmlns:xlink="http://www.w3.org/1999/xlink">
    <title>扬声器</title>
    <g id="页面" stroke="none" stroke-width="1" fill="none" fill-rule="evenodd">
        <g id="会议直播—主持人-功能扩展" transform="translate(-647.000000, -621.000000)">
            <g id="扬声器" transform="translate(647.000000, 621.000000)">
                <rect id="矩形备份-41" fill="#D8D8D8" opacity="0" x="0" y="0" width="24" height="24"></rect>
                <g id="编组-55" transform="translate(1.000000, 0.000000)">
                    <path d="M11.9995844,13.9515247 L12,19.7954617 C12,20.3477465 11.5522847,20.7954617 11,20.7954617 C10.7576863,20.7954617 10.5236152,20.7074779 10.3412976,20.5478653 L7.70858441,18.2425247 L11.9995844,13.9515247 Z M20,12 C20,14.8372923 18.0157367,17.2694259 15.2770936,17.8635843 C14.737365,17.9806803 14.2049034,17.638069 14.0878073,17.0983404 C13.9707113,16.5586118 14.3133227,16.0261502 14.8530513,15.9090541 C16.6765767,15.5134338 18,13.8912991 18,12 C18,10.8925282 17.5462227,9.87735461 16.80398,9.14668491 L18.2182225,7.73244738 C19.3246724,8.82741284 20,10.3447552 20,12 Z M11.7524036,3.54583583 C11.9120162,3.7281535 12,3.96222459 12,4.20453826 L11.9995844,8.37152467 L3.37158441,16.9995247 L3.07697434,17 C2.52802502,17 2.08170348,16.5574776 2.07701088,16.0085483 L2.00862172,8.00854833 C2.00390061,7.45628376 2.44777228,7.00475765 3.00003685,7.00003654 L6.28874463,7 L10.3412976,3.45213471 C10.7568386,3.0883434 11.3886123,3.13029482 11.7524036,3.54583583 Z M17,12 C17,13.071492 16.432718,14.0457318 15.5283855,14.5818433 C15.0533082,14.8634814 14.4398692,14.7066678 14.1582312,14.2315905 C13.8967102,13.7904473 14.0132417,13.2300024 14.4115969,12.9266944 L14.508484,12.8614362 C14.8113316,12.6819003 15,12.3578846 15,12 C15,11.7166356 14.8815694,11.4546336 14.6826658,11.2689528 L16.0969391,9.85425217 C16.6632552,10.4076371 17,11.174465 17,12 Z" id="形状结合" fill="#D8D8D8"></path>
                    <path d="M11.3728036,-2.58560839 L11.3740062,-2.58562592 C11.8956083,-2.59322645 12.3246117,-2.17654586 12.3322123,-1.65494378 C12.332346,-1.64576962 12.332346,-1.63659399 12.3322123,-1.62741983 L11.9354635,25.6002845 C11.9275821,26.1411656 11.4910208,26.5777269 10.9501397,26.5856084 L10.948937,26.5856259 C10.427335,26.5932264 9.99833148,26.1765459 9.99073095,25.6549438 C9.99059726,25.6457696 9.99059726,25.636594 9.99073095,25.6274198 L10.3874797,-1.6002845 C10.3953611,-2.14116562 10.8319224,-2.57772694 11.3728036,-2.58560839 Z" id="矩形备份-7" fill="#F93A4A" transform="translate(11.161472, 12.000000) rotate(-315.000000) translate(-11.161472, -12.000000) "></path>
                </g>
            </g>
        </g>
    </g>
</svg>